<svg enable-background="new 0 0 32 32" viewBox="0 0 32 32" xmlns="http://www.w3.org/2000/svg"><path d="m4 24v-1h-1-1v1h1v3h1z"/><path d="m20 31h9v1h-9z"/><path d="m3 31h9v1h-9z"/><path d="m12 29h1v2h-1z"/><path d="m13 28h1v1h-1z"/><path d="m14 27h4v1h-4z"/><path d="m18 28h1v1h-1z"/><path d="m19 29h1v2h-1z"/><path d="m13 5h6v1h-6z"/><path d="m6 4h1v1h-1z"/><path d="m7 3h1v1h-1z"/><path d="m8 2h1v1h-1z"/><path d="m9 1h1v1h-1z"/><path d="m10 2h1v1h-1z"/><path d="m11 3h1v1h-1z"/><path d="m12 4h1v1h-1z"/><path d="m9 3h1v1h-1z"/><path d="m11 4h-1v1h-1v-1h-1v1h-1v1h5v-1h-1z"/><path d="m19 4h1v1h-1z"/><path d="m20 3h1v1h-1z"/><path d="m21 2h1v1h-1z"/><path d="m22 1h1v1h-1z"/><path d="m23 2h1v1h-1z"/><path d="m24 3h1v1h-1z"/><path d="m25 4h1v1h-1z"/><path d="m22 3h1v1h-1z"/><path d="m24 4h-1v1h-1v-1h-1v1h-1v1h1 3 1v-1h-1z"/><path d="m0 18h1v3h-1z"/><path d="m1 21h1v2h-1z"/><path d="m1 16h1v2h-1z"/><path d="m4 16v-1-7h-1v7h-1v1h1z"/><path d="m6 17h1v1h-1z"/><path d="m25 17h1v1h-1z"/><path d="m19 19h1v1h1v-1h4v-1h-6z"/><path d="m13 19v-1h-6v1h4v1h1v-1z"/><path d="m11 22v1h1v-1-1h-1z"/><path d="m20 23h1v-1-1h-1v1z"/><path d="m12 20h1v1h-1z"/><path d="m19 20h1v1h-1z"/><path d="m15 22h2v1h-2z"/><path d="m15 18h2v1h-2z"/><path d="m15 20h2v1h-2z"/><path d="m13 21h2v1h-2z"/><path d="m17 21h2v1h-2z"/><path d="m2 27h1v1h-1z"/><path d="m1 28h1v2h-1z"/><path d="m2 30h1v1h-1z"/><path d="m31 18h1v3h-1z"/><path d="m30 21h1v2h-1z"/><path d="m30 16h1v2h-1z"/><path d="m28 16h1 1v-1h-1v-7h-1v7z"/><path d="m28 23v1 3h1v-3h1v-1h-1z"/><path d="m29 27h1v1h-1z"/><path d="m30 28h1v2h-1z"/><path d="m29 30h1v1h-1z"/><path d="m5 5h1v1h-1z"/><path d="m26 5h1v1h-1z"/><path d="m4 6h1v2h-1z"/><path d="m27 6h1v2h-1z"/><path d="m19 13v-1h-1v1h-4v-1h-1v1h-8v1 3h1v-3h3v1h1v1h2v-1h1v-1h1v2 1h-1v1h2v-1h2v1h2v-1h-1v-1-2h1v1h1v1h2v-1h1v-1h3v3h1v-3-1zm-2 3h-2v-2h2z"/></svg>