<?xml version="1.0" encoding="iso-8859-1"?>
<!-- Generator: Adobe Illustrator 26.5.0, SVG Export Plug-In . SVG Version: 6.00 Build 0)  -->
<svg version="1.1" id="Layer_1" xmlns="http://www.w3.org/2000/svg" xmlns:xlink="http://www.w3.org/1999/xlink" x="0px" y="0px"
	 viewBox="0 0 32 32" style="enable-background:new 0 0 32 32;" xml:space="preserve">
<polygon points="4,24 4,23 3,23 2,23 2,24 3,24 3,27 4,27 "/>
<rect x="20" y="31" width="9" height="1"/>
<rect x="3" y="31" width="9" height="1"/>
<rect x="12" y="29" width="1" height="2"/>
<rect x="13" y="28" width="1" height="1"/>
<rect x="14" y="27" width="4" height="1"/>
<rect x="18" y="28" width="1" height="1"/>
<rect x="19" y="29" width="1" height="2"/>
<rect x="13" y="5" width="6" height="1"/>
<rect x="6" y="4" width="1" height="1"/>
<rect x="7" y="3" width="1" height="1"/>
<rect x="8" y="2" width="1" height="1"/>
<rect x="9" y="1" width="1" height="1"/>
<rect x="10" y="2" width="1" height="1"/>
<rect x="11" y="3" width="1" height="1"/>
<rect x="12" y="4" width="1" height="1"/>
<rect x="9" y="3" width="1" height="1"/>
<polygon points="11,4 10,4 10,5 9,5 9,4 8,4 8,5 7,5 7,6 12,6 12,5 11,5 "/>
<rect x="19" y="4" width="1" height="1"/>
<rect x="20" y="3" width="1" height="1"/>
<rect x="21" y="2" width="1" height="1"/>
<rect x="22" y="1" width="1" height="1"/>
<rect x="23" y="2" width="1" height="1"/>
<rect x="24" y="3" width="1" height="1"/>
<rect x="25" y="4" width="1" height="1"/>
<rect x="22" y="3" width="1" height="1"/>
<polygon points="24,4 23,4 23,5 22,5 22,4 21,4 21,5 20,5 20,6 21,6 24,6 25,6 25,5 24,5 "/>
<rect y="18" width="1" height="3"/>
<rect x="1" y="21" width="1" height="2"/>
<rect x="1" y="16" width="1" height="2"/>
<polygon points="4,16 4,15 4,8 3,8 3,15 2,15 2,16 3,16 "/>
<rect x="6" y="17" width="1" height="1"/>
<rect x="25" y="17" width="1" height="1"/>
<polygon points="19,19 20,19 20,20 21,20 21,19 25,19 25,18 19,18 "/>
<polygon points="13,19 13,18 7,18 7,19 11,19 11,20 12,20 12,19 "/>
<polygon points="11,22 11,23 12,23 12,22 12,21 11,21 "/>
<polygon points="20,23 21,23 21,22 21,21 20,21 20,22 "/>
<rect x="12" y="20" width="1" height="1"/>
<rect x="19" y="20" width="1" height="1"/>
<rect x="15" y="22" width="2" height="1"/>
<rect x="15" y="18" width="2" height="1"/>
<rect x="15" y="20" width="2" height="1"/>
<rect x="13" y="21" width="2" height="1"/>
<rect x="17" y="21" width="2" height="1"/>
<rect x="2" y="27" width="1" height="1"/>
<rect x="1" y="28" width="1" height="2"/>
<rect x="2" y="30" width="1" height="1"/>
<rect x="31" y="18" width="1" height="3"/>
<rect x="30" y="21" width="1" height="2"/>
<rect x="30" y="16" width="1" height="2"/>
<polygon points="28,16 29,16 30,16 30,15 29,15 29,8 28,8 28,15 "/>
<polygon points="28,23 28,24 28,27 29,27 29,24 30,24 30,23 29,23 "/>
<rect x="29" y="27" width="1" height="1"/>
<rect x="30" y="28" width="1" height="2"/>
<rect x="29" y="30" width="1" height="1"/>
<rect x="5" y="5" width="1" height="1"/>
<rect x="26" y="5" width="1" height="1"/>
<rect x="4" y="6" width="1" height="2"/>
<rect x="27" y="6" width="1" height="2"/>
<path d="M19,13v-1h-1v1h-4v-1h-1v1H5v1v3h1v-3h3v1h1v1h2v-1h1v-1h1v2v1h-1v1h2v-1h2v1h2v-1h-1v-1v-2h1v1h1v1h2v-1h1v-1h3v3h1v-3v-1
	H19z M17,16h-2v-2h2V16z"/>
</svg>
