<?xml version="1.0" encoding="utf-8"?>
<!-- Generator: Adobe Illustrator 25.2.1, SVG Export Plug-In . SVG Version: 6.00 Build 0)  -->
<svg version="1.1" id="Layer_1" xmlns="http://www.w3.org/2000/svg" xmlns:xlink="http://www.w3.org/1999/xlink" x="0px" y="0px"
	 width="3706.3px" height="950px" viewBox="0 0 3706.3 950" style="enable-background:new 0 0 3706.3 950;" xml:space="preserve">
<style type="text/css">
	.st0{fill:#EFEFEF;}
	.st1{fill:#B3B3B3;}
	.st2{fill:#FFFFFF;}
	.st3{fill:#E88CB8;}
	.st4{fill:#E277AF;}
</style>
<g>
	<path d="M3398.5,22.5c-21.6,27.4-65.5,82.9-88.7,113.3h-209c-23.2-30.3-67.1-85.9-88.7-113.3l-7.5-9.4c-14.6-18.5-43.1-17-55.8,2.8
		l-6.5,10.1c-5.3,8.3-46.2,72.7-67.9,117.7c-19.5,7.3-37.1,19.5-50.9,35.5c-19.6,22.7-30.4,51.7-30.4,81.7v176.2
		c-18.6,10.2-35.2,24.2-48.2,41.1c-20.6,26.8-31.4,58.8-31.4,92.7s10.9,65.9,31.4,92.7c13,16.9,29.6,31,48.3,41.2
		c0.1,24.3,0.1,50.9,0.1,70.8c-8.2,4.2-15.9,9.7-22.8,16.3c-19.9,19.1-30.1,45.2-28.1,72.5c3.5,48.6,44.8,85.7,93.5,85.7h256.3h32.7
		l8.7-31.5c8.9-32.3,38.6-54.9,72.1-54.9s63.2,22.6,72.1,54.9l8.7,31.5h32.7h256.6c48.7,0,90-37.2,93.5-85.7
		c2-27.4-8.2-53.4-28.1-72.5c-6.9-6.6-14.5-12-22.8-16.3c0-19.9,0.1-46.5,0.1-70.8c18.7-10.2,35.2-24.2,48.3-41.2
		c20.6-26.8,31.4-58.8,31.4-92.7s-10.9-65.9-31.4-92.7c-13-16.9-29.5-31-48.2-41.1V260.9c0-30.4-11-59.7-31-82.5
		c-14.1-16.1-32-28.2-51.8-35.3c-21.8-45-62.4-108.9-67.6-117.1l-6.5-10.1C3449-4,3420.6-5.5,3406,13L3398.5,22.5z"/>
	<path class="st0" d="M3575.8,808.1c-0.5,0,0-131.9,0-131.9c45.9-13,79.6-55.2,79.6-105.3c0-50.1-33.7-92.3-79.6-105.3V260.9
		c0-41.5-30.8-75.9-70.8-81.5c-14.9-39.6-72.9-130.3-72.9-130.3s-93.7,118.5-100.9,129.5h-252c-7.1-11-100.9-129.5-100.9-129.5
		s-58.2,91.1-73,130.5c0,0,0,0,0,0c-39.4,6.2-69.5,40.2-69.5,81.3v204.7c-45.9,13-79.6,55.2-79.6,105.3s33.7,92.3,79.6,105.3
		c0,0,0.5,131.9,0,131.9c-27.3,0-50.9,22.2-50.9,49.5c0,27.3,22.2,49.5,49.5,49.5c0.5,0,257.7,0,257.7,0
		c13.7-49.8,59.3-86.4,113.5-86.4s99.7,36.6,113.5,86.4c0,0,257.5,0,258,0c27.3,0,49.5-22.2,49.5-49.5
		C3626.7,830.3,3603.1,808.1,3575.8,808.1z"/>
	<path d="M3275.9,375.8c0.7-1.6,1.4-3.2,2-4.7c2.2-3.5,3.5-7.7,3.5-12.2c-0.1-12.5-10.5-22.8-23-22.6c-11.1,0.1-20.2,8.2-22.1,18.7
		c-2.1,6-9.3,20.9-28.2,20.9c-9.5,0-16.8-3.5-23.1-11.1c-3.1-3.7-5.2-7.6-6.5-10.3c-2.1-10.4-11.2-18.2-22.2-18.2
		c-12.2,0-22.1,9.3-22.8,21.6c-0.3,5,1.1,9.6,3.6,13.5c0.6,1.5,1.3,3,2.1,4.5H2860c-4.4,0-7.9,3.5-7.9,7.9v28.1
		c0,44.3,18.2,85.8,51.3,116.9c32.5,30.5,75.5,47.3,121.2,47.3c17.7,0,35-2.5,51.5-7.4c0.6,11.5,4,19.4,4.4,20.2
		c0.5,1.2,1.2,2.3,1.9,3.4c11.1,16.6,26.9,26.6,45.7,28.9c5.2,0.6,20.9,12.6,26.7,16.1c3.3,2,21.3,11.8,52.2,11.8
		c29.8,0,46.8-7.4,49.9-8.9c6.4-3.1,28.3-18.7,31.1-19.1c18.8-2.3,34.6-12.3,45.7-28.9c0.7-1.1,1.4-2.2,1.9-3.4
		c0.3-0.7,3.6-8.1,4.3-19c15.2,4.1,31.1,6.2,47.3,6.2c45.6,0,88.7-16.8,121.2-47.3c33.1-31.1,51.3-72.6,51.3-116.9v-28.1
		c0-4.4-3.5-7.9-7.9-7.9L3275.9,375.8L3275.9,375.8z"/>
	<path class="st1" d="M3185.9,470.8c6.5-16.2,10.3-33.3,11.2-51c3.5,0.5,7.2,0.8,11.1,0.8c2.4,0,4.7-0.1,6.9-0.3
		c0.9,17.3,4.6,34.1,10.9,49.9C3213,468.4,3198.4,468.7,3185.9,470.8z"/>
	<g>
		<path class="st2" d="M3082,411.8c-1.8,26.4-23.8,47.3-50.6,47.3s-48.8-20.9-50.6-47.3h-88.6c-2.2,0-4,1.9-3.9,4.1
			c2.3,68.9,62.5,124.1,136.4,124.1s134.1-55.2,136.4-124.1c0.1-2.2-1.7-4.1-3.9-4.1H3082L3082,411.8z"/>
		<path class="st2" d="M3329.8,411.8c1.8,26.4,23.8,47.3,50.6,47.3c26.9,0,48.8-20.9,50.6-47.3h88.6c2.2,0,4,1.9,3.9,4.1
			c-2.3,68.9-62.5,124.1-136.4,124.1c-73.9,0-134.1-55.2-136.4-124.1c-0.1-2.2,1.7-4.1,3.9-4.1H3329.8L3329.8,411.8z"/>
	</g>
	<g>
		<path d="M2934.8,158.8c-2.2,4.6,1.1,9.9,6.2,9.9h95.5c5.6,0,8.8-6.3,5.6-10.8l-17.1-24.3L3000.7,99l-8.4-11.9
			c-6-8.5-19-7.5-23.6,1.9L2934.8,158.8z"/>
		<path d="M3375.4,168.6h95.5c5.1,0,8.4-5.3,6.2-9.9l-34-69.8c-4.6-9.4-17.5-10.4-23.6-1.9l-49.7,70.8
			C3366.6,162.4,3369.9,168.6,3375.4,168.6z"/>
	</g>
	<g>
		<polygon class="st3" points="2965.6,146.3 3006.7,146.3 2982.4,111.8 		"/>
		<polygon class="st3" points="3446.2,146.3 3405.1,146.3 3429.4,111.8 		"/>
	</g>
	<path class="st4" d="M3205.9,524.5c-3-14.5-22.5-21-30.7-23.1c-1.5-0.4-1.7-2.5-0.3-3.2c13.1-6.8,49.2-6.8,62.2,0
		c1.4,0.7,1.2,2.8-0.3,3.2C3228.5,503.5,3209,510,3205.9,524.5L3205.9,524.5z"/>
	<path class="st1" d="M3166.2,616.6c0,0,9.4-7.9,40.9-7.9c31.5,0,38.5,9.8,38.5,9.8s-13.7,6.5-39.5,6.5
		C3180.2,625.1,3166.2,616.6,3166.2,616.6z"/>
	<path class="st1" d="M3295.1,529.8c-28-23.8-31.3-25.2-31.3-25.2s-0.5,24.3-27.1,24.3c0,0-3.3,18.2-30.8,18.2s-30.8-18.2-30.8-18.2
		c-26.6,0-27.1-24.3-27.1-24.3s-3.3,1.4-31.3,25.2c-28,23.8-16.5,49-16.5,49c33.5,50,105.7-15.4,105.7-15.4s72.3,65.4,105.7,15.4
		C3311.6,578.8,3323.1,553.6,3295.1,529.8z"/>
	<g>
		<path d="M3031.6,662.4c-0.1,0-0.2,0-0.3,0c-3.8-0.2-6.7-3.3-6.6-7.1c2-51,27.3-80,48.1-95.4c22.5-16.6,44.3-21.1,45.2-21.3
			c3.7-0.8,7.3,1.7,8.1,5.4c0.7,3.7-1.7,7.3-5.4,8.1c-0.3,0.1-20.3,4.3-40.2,19.2c-26.5,19.8-40.6,48.2-42.1,84.6
			C3038.3,659.5,3035.2,662.4,3031.6,662.4z"/>
		<path d="M3067,691.7c-3.7,0-6.8-3-6.9-6.8c-1.3-88.4,59.6-114.2,62.2-115.2c3.5-1.4,7.5,0.3,8.9,3.8c1.4,3.5-0.2,7.5-3.7,8.9l0,0
			c-2.2,0.9-54.8,23.7-53.7,102.3c0.1,3.8-3,6.9-6.8,7C3067.1,691.7,3067.1,691.7,3067,691.7z"/>
		<path d="M3380.3,662.4c-3.7,0-6.7-2.9-6.8-6.6c-1.5-36.3-15.6-64.8-42.1-84.6c-20-15-40-19.2-40.2-19.2c-3.7-0.8-6.1-4.4-5.4-8.1
			c0.8-3.7,4.4-6.1,8.1-5.4c0.9,0.2,22.8,4.7,45.2,21.3c20.8,15.4,46,44.4,48.1,95.4c0.2,3.8-2.8,7-6.6,7.1
			C3380.5,662.4,3380.4,662.4,3380.3,662.4z"/>
		<path d="M3344.8,691.7c0,0-0.1,0-0.1,0c-3.8-0.1-6.8-3.2-6.8-7c1.2-79.1-53.1-102.1-53.6-102.3c-3.5-1.4-5.2-5.4-3.8-8.9
			c1.4-3.5,5.4-5.2,8.9-3.8c2.6,1.1,63.5,26.9,62.2,115.2C3351.6,688.7,3348.5,691.7,3344.8,691.7z"/>
	</g>
</g>
<g>
	<path d="M1248.7,949.8c-388.6,0-777.1-0.1-1165.7,0.2c-17.5,0-32.8-6.2-45.5-15.9c-24.1-18.4-38.7-42.7-37.5-75
		c1.2-32.4,0.7-65,0.1-97.5c-0.4-21.8,8.7-39.4,22.1-55.1c15.1-17.7,22.1-36.1,13.1-59.5c-11.6-30-12.7-61-5.8-92.5
		c9.4-42.6,18.6-85.2,27.5-127.9c7.6-36.7,14.5-73.6,22.2-110.3c6.3-30.1,13.4-60,19.8-90.1c8-37.3,15.4-74.8,23.4-112.1
		c7-32.4,21.1-60.7,51.6-76.8c11.6-6.1,25.5-10.3,38.5-10.6C267,25.6,321.5,26,376,26.3c24.3,0.2,46.6,8.3,67.9,19.2
		c30.2,15.5,52,39.9,71.4,67.1c8.8,12.3,21.5,11.5,29.3-1.7c8.3-14,14.5-29.1,23-42.9C581,46,602,34,626,26.6
		c2.4-0.7,5.2-0.4,7.8-0.4c57.4,0,114.9-0.5,172.3,0.4c12.5,0.2,24.9,5.3,37.3,8.7c13.6,3.7,27.1,10.1,41.3,4.5
		c9.7-3.9,18.6-9.8,27.7-14.9c36-20.3,75-27.8,115.6-23.9c38.6,3.7,74.4,16.7,103.7,43.3c13.7,12.5,27,11.2,42.9,3.9
		c29.1-13.4,59.5-23.8,91.6-27.7c18.6-2.3,37.5-3.4,56.3-4c38.4-1.2,76.5,0.4,114.1,9.5c15.9,3.9,32,6.6,48,9.7
		c14,2.7,26.7-3,39.8-6.4c5.2-1.4,10.6-2.5,16-3c5.5-0.5,11.1-0.1,16.7-0.1c73.4-0.6,146.8-1.7,220.2-1.8
		c56.6-0.1,113.3,0,169.9,2.4c24.4,1,47.4,11.1,67.9,25.1c28.1,19.3,50.3,43.8,62.8,76c4.5,11.5,8.3,23.2,12.1,34.9
		c3,9,11,14.7,20.9,15.1c44.7,1.8,88.5,7.7,129.2,27.8c14,6.9,26.7,7.1,39.7-2.4c13-9.5,27.9-13.8,44.2-13.7
		c61.7,0.2,123.4,0.3,185.1-0.1c10.9-0.1,22-1.4,32.6-3.9c28.6-6.8,57.7-8.8,86-3.2c35.6,7,63.1,26.1,74.5,63.2
		c5.8,18.8,4.9,37,0.3,56c-8.1,34-14.2,68.4-22.4,102.3c-6.4,26.4-12.3,53.3-34.9,72.3c-21,17.7-45,23.1-71.4,19.8
		c-7.9-1-15.6-4.1-23.5-4.9c-11.7-1.2-18.7,4.8-21.4,16.1c-4.4,18.4-9.3,36.6-13.4,55.1c-5,22.5-9.5,45.1-14.2,67.7
		c-4.6,22-9.4,43.9-13.6,65.9c-2.6,13.6-3.9,27,1.2,41.1c5,14,8.5,29.1,9.3,44c1.5,25.8,0.5,51.7,0.4,77.5c0,3.8-1.2,7.7-1.2,11.5
		c-0.2,24.8-12.8,43.5-31,58.1c-11,8.8-33.7,21.6-48.1,21.6S1638.6,949.8,1248.7,949.8z"/>
	<path class="st0" d="M690.6,273.2c0.9,0,1.8,0.1,2.7,0.1c-0.4,3.9-0.5,7.8-1.3,11.5c-3.3,16-7.1,31.9-10.3,47.9
		c-5.5,26.7-10.6,53.5-16.1,80.2c-3,14.4-6.5,28.7-9.5,43.2c-5.5,26.4-10.6,52.8-16.2,79.1c-4.8,22.6-10.7,44.8-7.7,68.6
		c4.4,34.2,23.1,56.2,54.3,68.5c26.2,10.3,53.7,8,80.9,7.3c6.6-0.2,11.5-5,13-13.4c3.5-19.9,8.4-39.5,12.6-59.2
		c3-14.1,5.8-28.2,8.7-42.3c3.9-18.5,7.7-37,11.7-55.6c3.3-15.3,6.8-30.6,9.9-45.9c5-24.1,9.6-48.4,14.7-72.5
		c5.3-24.7,11.4-49.3,16.7-74c6.4-30.1,11.4-60.6,18.6-90.5c7.2-30.1,3.9-57.7-14.8-82.4c-16.4-21.7-38.7-34.3-66.2-34.6
		c-47.9-0.6-95.8-0.1-143.7-0.3c-7.2,0-11.6,2.5-14.5,8.9c-4.4,9.9-9.3,19.7-13.5,29.7c-18.5,43.8-36.8,87.8-55.4,131.6
		c-13.6,32-27.4,64-41.1,95.9c-8.1,19-16.4,37.9-24.5,56.8c-9,20.9-17.8,41.8-26.8,62.6c-1,2.3-3,4.1-4.6,6.1
		c-1.1-2.5-3-4.9-3.1-7.4c-0.9-22.2-1.3-44.4-2.1-66.6c-1.2-30.6-2.7-61.2-3.9-91.8c-1.4-37.8-2.2-75.7-4.2-113.5
		c-1.1-21.7-2.7-43.6-12-63.9c-11.8-25.8-43-47.6-72-48.1c-47.9-0.8-95.8-0.2-143.7-0.2c-16.6,0-18.7,1.5-22.1,17.5
		c-3.7,17.5-6.8,35.2-10.6,52.7c-3.5,16.3-7.6,32.4-11.1,48.7c-5.1,23.4-9.9,47-15,70.4c-5.4,24.7-11.2,49.4-16.5,74.1
		c-4.5,21-8.3,42.1-12.7,63.1c-4.1,19.4-8.7,38.7-12.9,58.1c-4.1,18.8-7.7,37.7-11.8,56.5c-4.8,22.1-9.7,43.8-2.3,66.7
		c8.4,25.8,24.8,44.1,48.7,55.1c20.8,9.6,43.6,8.7,66,7.6c4-0.2,9.9-5.6,11.1-9.8c4.7-16.2,8-32.9,11.6-49.5
		c4.9-22.5,9.9-45,14.3-67.7c6.3-32.4,11.9-65,18.1-97.5c5.6-29.3,11.7-58.4,17.5-87.7c6-30.2,11.8-60.5,17.9-90.6
		c0.4-1.7,2.4-3.2,5.1-6.6c1.1,7.7,2.1,13,2.5,18.3c0.8,13,1.2,26,2,39c1.9,31.1,4,62.2,5.9,93.4c1.4,23.7,2.5,47.4,4,71.1
		c1.8,27.5,4.2,55,5.8,82.5c1.7,28.3,2.9,56.6,4,84.9c0.5,14,6.7,20.6,20.7,20.6c39.7,0,79.4-0.7,119.1,0.4
		c14.1,0.4,20.7-6.2,25.7-17.3c7.4-16.6,14.8-33.1,22.4-49.6c15.4-33.3,31.2-66.4,46.4-99.8c18.2-40.1,35.7-80.5,54-120.6
		C653.4,353,672.1,313.1,690.6,273.2z"/>
	<path class="st0" d="M1332,97.4c-40.6,0-79.4,7.5-116.6,23.4c-31.9,13.6-58.5,33.8-80,61.1c-16.7,21.2-25.6,45.2-31,71.4
		c-4.9,23.7-4.1,47.1-1.2,70.6c3.7,30.6,18.6,55.7,39.5,77.6c21.1,22.1,47.7,36.1,74.3,50c15.9,8.3,32,16.4,47.3,25.8
		c11.5,7.1,21.2,17.3,23.6,30.8c5.1,28.4-13.6,50.4-42.7,51.6c-13.8,0.6-27.7,0.1-41.5,0.1c-22.7,0-43.8-7.5-64-16.3
		c-18.4-8-35.3-19.6-53.4-28.6c-3.7-1.9-11.7-1.2-13.9,1.5c-3.3,4-3.3,10.7-4.6,16.3c-4.4,19-8.8,38.1-13.1,57.1
		c-3.6,15.9-7.2,31.8-10.4,47.8c-1.2,6.1,0.1,11.3,7.5,13.7c26.7,8.6,52.9,19.5,80.1,26.1c26.2,6.3,53.2,10.2,80.1,11.8
		c22.2,1.4,44.7-2,67.1-3.4c26-1.6,50.9-8.2,75.2-17.6c41.3-15.9,74-41.9,96.1-80.5c10.1-17.6,17.1-36.7,18.8-56.9
		c1.5-17.3,1.4-35,0-52.3c-1.6-19.8-7-39.1-16.7-56.7c-15-27-37.3-46.9-63-63.2c-27.4-17.4-55.8-33.2-82.9-51
		c-18.8-12.3-25.4-26.4-22.5-47.1c2.5-17.2,15-24.3,28.7-29.3c23.7-8.7,48.2-3.6,72.2-0.9c13,1.5,25.5,6.7,38.5,8.2
		c19.1,2.3,36.6-3.9,51.3-16c27.4-22.4,32.5-54.1,33.7-86.8c0.1-2.9-4.4-7.9-7.7-8.8c-27.7-7.7-55.3-16.6-83.5-21.5
		C1389.1,100.7,1360.4,100,1332,97.4z"/>
	<path class="st1" d="M938.7,867.1c280.3,0,560.5,0,840.8,0c15.1,0,15.5-0.3,16.8-15.6c0.2-2,0-3.9,0-5.9c0-23.3,0-46.6,0-69.9
		c0-16.9,0-16.9-16.9-16.9c-560.2,0-1120.3,0-1680.5,0c-2.3,0-4.6,0.2-6.9,0c-6.5-0.8-8.6,2.9-8.9,8.5c-0.7,15-1.8,30-1.8,45
		c0,13.7,1.4,27.3,1.8,41c0.3,13.9,0.1,13.9,14,13.9C377.5,867.1,658.1,867.1,938.7,867.1z"/>
	<path class="st0" d="M1746.4,108.9c-64.6,0-129.3,0.1-193.9-0.1c-7.1,0-11,1.5-12.7,9.7c-6.6,33.3-14.4,66.3-21.1,99.6
		c-4.1,20.4,0.2,24.7,21.1,24.7c39.4,0,78.7,0.2,118.1-0.2c9.2-0.1,12.6,4.2,12,12.2c-0.5,6-2.5,11.9-3.7,17.8
		c-6.1,30.5-12,61-18.4,91.4c-6.7,31.9-14.2,63.7-20.9,95.7c-8,38.3-16.6,76.5-22.8,115c-2.4,14.7-1.7,31.1,2.3,45.4
		c4.8,16.8,16.6,31,31.1,41.6c7.6,5.6,16.1,12.6,24.8,13.6c25.5,3,51.2,3.4,76.9,4.5c11,0.5,16.3-4.7,17.6-16
		c0.3-2.3,0.1-4.6,0.6-6.8c3.7-17.2,7.6-34.3,11.2-51.5c3.6-17.6,6.7-35.3,10.5-52.8c3.4-15.6,7.7-30.9,11.1-46.5
		c4.5-20.7,8.4-41.5,12.7-62.2c3-14.4,6.1-28.8,9.1-43.2c5.1-24.8,10.4-49.5,15.3-74.3c4.2-21.1,8.8-42.1,12.1-63.4
		c2.6-16.7,5.5-20.3,22.6-20.3c44.3,0,88.6-0.1,132.9,0.2c7,0,11.8-2.3,13.3-8.6c2.2-9,4.4-18.3,4.5-27.6
		c0.2-28.5-9.5-54.2-29.2-74.4c-13.9-14.2-31.2-23.9-53-23.7C1869.1,109.3,1807.8,108.9,1746.4,108.9z"/>
	<path class="st0" d="M2007,528.5c7.7-1.4,15.2-3.2,22.8-4c27.7-2.9,55.6-3.8,83-8.5c29.8-5.2,59.4-12.3,86.9-25.8
		c27.2-13.3,48.6-32.3,60.6-60.7c10.5-24.7,8.6-50.5,4.3-75.6c-6.5-37.8-31.5-61.2-65.7-75.6c-18.7-7.9-38.4-11.7-58.8-14.5
		c-29.4-4.1-57.9-2.4-86.6,2.8c-32.3,5.9-62.8,16.5-91.3,33.5c-32.8,19.6-57.8,46.3-77.5,78.6c-18.1,29.6-31.9,61.2-36.7,95.3
		c-4.5,31.7-4.8,63.8,2.9,95.8c11.9,49.4,41.1,83.2,87.6,102.6c18.8,7.8,38.6,10.8,58.6,14.5c32.5,6,64.2,2.4,95.9-2
		c23-3.2,45.5-10.2,67.9-16.8c11.9-3.6,26.1-5.6,31.7-19.4c3.3-8.2,4.6-17.2,6.5-26c4.4-21,8.8-41.9,12.6-63
		c1.8-10-0.3-11.2-10.5-8.1c-13.7,4.2-27.7,7.9-41.2,12.7c-29.7,10.7-60.2,15.8-91.5,13c-12.8-1.1-26.2-4.4-37.7-10
		C2016.2,560.1,2006.1,547.9,2007,528.5z"/>
	<path class="st0" d="M2484.2,272.4c-4.5,0-7.9,0-11.4,0c-46.3,0-92.6,0.4-138.8-0.3c-10-0.1-14.5,4.5-16.9,12.4
		c-2.3,7.7-3.4,15.7-4.9,23.6c-2.7,14.2-5.2,28.4-8,42.6c-3.1,15.4-6.7,30.7-9.7,46.1c-4,20.5-7.4,41.1-11.4,61.5
		c-3.1,16-7.3,31.8-10.2,47.9c-4.3,23.4-7.5,47-12.1,70.3c-5.7,28.9,2.4,53.5,21.7,74.9c18.5,20.5,42.3,28.7,69.3,28.8
		c17.9,0.1,35.8,0,53.3,0c1.7-5.3,3-8.3,3.6-11.4c4.1-20.4,7.6-41,12-61.4c6.3-29.1,12.6-58.3,19.8-87.1c6.9-27.5,12-55.8,31.1-78.8
		c14.2-17,32.2-28.4,53.3-32.6c19.2-3.8,39.2-2.9,58,4.2c6.6,2.5,8.8-0.7,10-5.1c4.5-16.7,8.7-33.4,12.6-50.3
		c5.7-24.3,10.7-48.8,16.7-73c3.8-15.1,1.2-19.5-14.5-20.1c-1.6-0.1-3.3-0.1-4.9-0.3c-23-3.2-44.6,0.3-65.1,11.8
		c-17.6,9.9-28.3,26.2-40.5,41.3c-6,7.4-11.8,15-17.8,22.6c-0.8-0.5-1.6-0.9-2.3-1.4C2479.6,317,2481.8,295.5,2484.2,272.4z"/>
	<path class="st0" d="M946,680c4.9,0,9.8,0,14.8,0c19.8,0,20.3,0.1,25.3-18.3c4.2-15.1,7.4-30.5,10.6-45.9
		c6.7-31.7,13.1-63.5,19.8-95.2c3.7-17.6,8-35,11.6-52.6c4.7-22.2,9.4-44.5,13.4-66.9c3.5-19.6,8.7-39.1,4.4-59.3
		c-7-33.3-22.6-53.5-55.5-63.8c-28-8.7-56.7-5.2-85.2-5.7c-2.2,0-5.9,2.1-6.6,4c-2,6-3,12.5-4.3,18.8c-2.9,14.5-5.6,29-8.6,43.4
		c-2.9,14.1-6.2,28.1-9.1,42.2c-4.2,20.1-8.3,40.2-12.5,60.2c-3,14.1-6.2,28.1-9.1,42.2c-4.2,20.1-8.5,40.2-12.5,60.3
		c-4.2,20.8-9.7,41.1-5.6,63c5.9,31.5,23.5,52.4,51.9,65.7C907.2,681,926.6,680.1,946,680z"/>
	<path class="st0" d="M1006.7,81.2c-14.5,3.4-29.8,5.1-43.4,10.7c-14.3,5.8-27.4,14.6-37.8,27.3c-13.5,16.6-17.8,35.2-15.2,55.4
		c2.4,18.6,10.7,34.7,25.6,46.7c12.7,10.2,26.4,18.1,43.4,17.9c16.5-0.2,33.5,2.2,49.2-1.1c19.7-4.2,36.4-15.1,51.8-29.7
		c26.4-25.1,22.8-72.6,0.1-97.3C1060.7,89.4,1035.1,83.4,1006.7,81.2z"/>
	<path class="st3" d="M2268.9,805.8c-11,0-20.9,0.2-30.9-0.1c-13.5-0.3-26.9-1-40.4-1.6c-8.6-0.4-6.1,6.7-6.7,11
		c-0.2,1.2,4.6,4.4,7.2,4.5c12.8,0.5,25.6,0.1,38.4,0.2c20.6,0.2,18.3-3.3,18.5,19.1c0.1,10.6-4.7,13.9-14.4,14
		c-23.1,0.3-46.1-0.4-69.2-0.6c-9.5-0.1-12.9-3.3-12.9-12.8c-0.1-15.4,0-30.8,0-46.2c0-20.7,0-20.7,21-20.7c28.8,0,57.6,0,87.6,0
		c-2.5-6.9,5.7-17.4-8-17.6c-29.8-0.4-59.7-0.5-89.5,0c-15.4,0.2-26.8,13-26.8,28.4c0,19,0.6,38.1-0.2,57.1
		c-0.7,17.2,10.2,27.9,27,28.4c24.9,0.8,49.9,0.6,74.8,0.1c14.1-0.3,23.1-8.5,24.2-22.4C2269.7,832.8,2268.9,819,2268.9,805.8z"/>
	<path class="st3" d="M2416.5,868.6c0-30.5,0.4-60.3-0.3-90.1c-0.2-8.6-5.6-16.6-14.1-19.3c-8.4-2.8-17.7-3.9-26.6-4.1
		c-19.3-0.6-38.7-0.5-58.1-0.1c-17.4,0.4-28.7,12.8-28.9,28.6c-0.3,25.3,0,50.5-0.1,75.8c0,6,0.5,10.1,8.2,10
		c7.3-0.1,7.7-4.1,7.6-9.6c-0.2-10.8-0.5-21.7,0.3-32.5c0.2-2.6,4.1-7,6.4-7.1c27.9-0.5,55.8-0.5,83.6-0.2c5.1,0.1,8.1,2.3,6.8,9.3
		c-1.6,8.4-0.6,17.3-0.6,26C2400.8,869.4,2401,869.5,2416.5,868.6z"/>
	<path class="st3" d="M2019.5,819.8c28.9,0,57,0,85.2-0.1c1.8,0,3.8-0.8,5.3-1.7c10.8-6.4,18.3-25.8,14.8-38.2
		c-4.3-15.5-15.9-24.9-31.1-25c-29.5-0.1-59.1,0.2-88.6-0.2c-7.8-0.1-10.2,2.3-10.1,10.1c0.4,31.2,0.2,62.3,0.1,93.5
		c0,5.9-0.6,11.1,8.2,10.9c8.3-0.1,7.6-5.2,7.6-10.6c0-25.3,0.3-50.5-0.2-75.8c-0.2-8.5,2.8-10.6,10.8-10.5
		c24.3,0.4,48.6,0.1,72.8,0.2c11.9,0,13,1.1,13.1,12.9c0.1,17-0.9,18.5-13.5,18.6c-20.7,0.1-41.3,0-62,0
		C2018.1,804.1,2018.1,804.1,2019.5,819.8z"/>
	<path class="st3" d="M1869.1,819.5c36.8,0,72.4,0,107.9,0c0.9-15.5,0.9-15.5-12.9-15.5c-15.1,0-30.2,0-45.3,0
		c-16.3,0-32.6,0-49.7,0c0-8.2-1-15.6,0.4-22.5c0.7-3.5,5.2-7.7,8.8-8.6c5.5-1.5,11.7-0.4,17.6-0.4c26.8,0,53.7,0,82.9,0
		c-4.6-6.5,5-17.4-9.2-17.6c-29.2-0.4-58.5-1-87.6,0.2c-16.9,0.7-29.6,10.4-28.9,30.3c0.8,24.9,0.3,49.9,0.1,74.8
		c-0.1,6.2,1.7,8.9,8.4,8.9c6.4-0.1,7.6-3.2,7.5-8.7C1869,847.5,1869.1,834.4,1869.1,819.5z"/>
	<path d="M2115.5,384.9c-0.6,17.2-9.3,28.9-21.9,36.8c-14.2,9-29.8,15.7-47.3,16.2c-2.8,0.1-5.9,0.8-8.3,2.1c-7.5,4-15.2,2-19.6-3.1
		c-3-3.4-3.1-11.8-1.2-16.7c8.3-21.1,19.2-40.4,39.4-53.2c12.8-8,26.1-9.7,40.3-7.8C2105.8,360.4,2117.5,375.4,2115.5,384.9z"/>
	<path d="M2353.9,772.6c12.1,0,24.3,0.4,36.4-0.1c6.9-0.3,9.4,3.5,10.4,8.9c1,5.7,1.6,11.6,1.4,17.4c-0.1,1.8-3.5,5-5.5,5.1
		c-29,0.9-58,1.4-87.1,1.8c-1.5,0-4.4-1.7-4.4-2.6c-0.2-8.1-0.9-16.4,0.7-24.2c0.6-2.7,7-5.7,10.9-6
		C2329,772.1,2341.5,772.6,2353.9,772.6z"/>
	<g>
		<circle cx="153.9" cy="812.9" r="25.5"/>
		<ellipse transform="matrix(0.1602 -0.9871 0.9871 0.1602 -616.9365 900.7518)" cx="220.9" cy="812.9" rx="25.5" ry="25.5"/>
		<circle cx="284.7" cy="812.9" r="25.5"/>
		<circle cx="350.7" cy="812.9" r="25.5"/>
		<circle cx="415.9" cy="812.9" r="25.5"/>
		<ellipse transform="matrix(0.1602 -0.9871 0.9871 0.1602 -398.6271 1157.3438)" cx="480.8" cy="812.9" rx="25.5" ry="25.5"/>
		<circle cx="545.8" cy="812.9" r="25.5"/>
		<circle cx="611.7" cy="812.9" r="25.5"/>
		<circle cx="708.5" cy="812.9" r="25.5"/>
		<circle cx="776.2" cy="812.9" r="25.5"/>
		<circle cx="841.2" cy="812.9" r="25.5"/>
		<circle cx="906.2" cy="812.9" r="25.5"/>
		<ellipse transform="matrix(0.1602 -0.9871 0.9871 0.1602 13.3515 1641.5665)" cx="971.4" cy="812.9" rx="25.5" ry="25.5"/>
		<circle cx="1034.1" cy="812.9" r="25.5"/>
		<circle cx="1101.3" cy="812.9" r="25.5"/>
		<circle cx="1169.1" cy="812.9" r="25.5"/>
		<circle cx="1266.5" cy="812.9" r="25.5"/>
		<circle cx="1330.8" cy="812.9" r="25.5"/>
		<circle cx="1396.5" cy="812.9" r="25.5"/>
		<circle cx="1461.5" cy="812.9" r="25.5"/>
		<circle cx="1526.5" cy="812.9" r="25.5"/>
		<circle cx="1591.5" cy="812.9" r="25.5"/>
		<circle cx="1658.4" cy="812.9" r="25.5"/>
		<circle cx="1724.4" cy="812.9" r="25.5"/>
		<circle class="st1" cx="153.9" cy="812.9" r="9.8"/>
		<circle class="st1" cx="284.7" cy="812.9" r="9.8"/>
		<circle class="st1" cx="415.9" cy="812.9" r="9.8"/>
		
			<ellipse transform="matrix(0.1602 -0.9871 0.9871 0.1602 -398.6271 1157.3439)" class="st1" cx="480.8" cy="812.9" rx="9.8" ry="9.8"/>
		<circle class="st1" cx="708.5" cy="812.9" r="9.8"/>
		<circle class="st1" cx="841.2" cy="812.9" r="9.8"/>
		<circle class="st1" cx="971.1" cy="812.9" r="9.8"/>
		<circle class="st1" cx="1034.1" cy="812.9" r="9.8"/>
		<circle class="st1" cx="1169.1" cy="812.9" r="9.8"/>
		<circle class="st1" cx="1266.5" cy="812.9" r="9.8"/>
		<circle class="st1" cx="1396.5" cy="812.9" r="9.8"/>
		<circle class="st1" cx="1461.5" cy="812.9" r="9.8"/>
		<circle class="st1" cx="1526.5" cy="812.9" r="9.8"/>
	</g>
</g>
</svg>
