<?xml version="1.0" encoding="utf-8"?>
<!-- Generator: Adobe Illustrator 25.2.1, SVG Export Plug-In . SVG Version: 6.00 Build 0)  -->
<svg version="1.1" id="Layer_1" xmlns="http://www.w3.org/2000/svg" xmlns:xlink="http://www.w3.org/1999/xlink" x="0px" y="0px"
	 width="1000px" height="1000px" viewBox="0 0 1000 1000" enable-background="new 0 0 1000 1000" xml:space="preserve">
<path d="M726.807,25.212c11.124,0,22.208,5.345,28.9,15.815c0,0,52.324,82.231,74.078,127.208
	c19.814,7.125,37.675,19.213,51.769,35.282c19.997,22.803,31.011,52.077,31.011,82.43v176.151
	c18.626,10.164,35.156,24.196,48.14,41.109c20.557,26.777,31.422,58.806,31.422,92.626c0,33.82-10.866,65.849-31.422,92.626
	c-13.005,16.941-29.567,30.99-48.229,41.159c-0.068,24.252-0.12,50.837-0.119,70.744c8.244,4.206,15.915,9.655,22.767,16.248
	c19.885,19.137,30.044,45.157,28.089,72.502c-3.471,48.532-44.795,85.676-93.452,85.676H613.248h-32.639l-8.662-31.469
	c-8.897-32.318-38.545-54.889-72.1-54.889c-33.555,0-63.204,22.571-72.1,54.889l-8.662,31.469h-32.639H130.241
	c-48.656,0-89.98-37.144-93.452-85.676c-1.956-27.346,8.204-53.365,28.089-72.502c6.851-6.594,14.523-12.043,22.767-16.248
	c0.002-19.908-0.051-46.492-0.119-70.744c-18.662-10.168-35.224-24.218-48.229-41.159c-20.557-26.777-31.422-58.807-31.422-92.626
	s10.865-65.848,31.421-92.627c12.985-16.913,29.514-30.945,48.14-41.109V285.946c0-30.002,10.788-59.02,30.378-81.71
	c13.803-15.987,31.347-28.132,50.851-35.443c21.692-45.014,74.348-127.767,74.348-127.767c6.693-10.471,17.774-15.816,28.9-15.815
	c9.959,0.001,19.954,4.286,26.855,13.012c0,0,72.926,92.335,96.123,122.637h208.938c23.196-30.302,96.122-122.637,96.122-122.637
	C706.854,29.496,716.846,25.212,726.807,25.212 M726.807,17.338c-12.949,0-24.989,5.832-33.031,16.001
	c0,0-70.492,89.263-93.831,119.647H398.776c-23.428-30.5-93.832-119.647-93.832-119.647c-8.041-10.168-20.08-16-33.03-16.001
	c-14.467-0.001-27.751,7.269-35.535,19.449c0,0-51.141,80.32-73.445,125.788c-19.627,7.903-37.235,20.48-51.08,36.517
	c-20.824,24.12-32.292,54.965-32.292,86.856v171.557c-17.957,10.502-33.969,24.571-46.511,40.908
	C11.428,526.577,0,560.265,0,595.833c0,35.57,11.429,69.258,33.051,97.421c12.565,16.368,28.611,30.458,46.614,40.968
	c0.064,23.806,0.101,45.268,0.106,61.448c-7.352,4.205-14.181,9.326-20.353,15.266c-10.742,10.337-18.855,22.448-24.114,35.996
	c-5.281,13.603-7.423,27.983-6.368,42.741c1.817,25.408,13.3,48.952,32.332,66.296c18.889,17.213,43.384,26.693,68.974,26.693
	h256.203h32.639h5.999l1.592-5.784l8.662-31.469c7.959-28.912,34.486-49.105,64.509-49.105c30.023,0,56.55,20.193,64.509,49.105
	l8.662,31.468l1.592,5.784h5.999h32.639h256.511c25.59,0,50.086-9.48,68.974-26.693c19.032-17.344,30.515-40.888,32.331-66.296
	c1.056-14.758-1.087-29.138-6.368-42.74c-5.26-13.548-13.373-25.659-24.115-35.997c-6.171-5.939-13.001-11.06-20.352-15.265
	c0.007-21.067,0.064-45.8,0.106-61.449c18.002-10.51,34.049-24.6,46.614-40.968c21.622-28.165,33.05-61.852,33.05-97.421
	c0-35.57-11.429-69.258-33.051-97.421c-12.541-16.336-28.553-30.405-46.511-40.908V285.947c0-32.263-11.707-63.381-32.965-87.622
	c-14.132-16.114-32.053-28.639-51.99-36.367c-22.359-45.416-73.142-125.172-73.142-125.172
	C754.558,24.608,741.274,17.338,726.807,17.338L726.807,17.338z"/>
<path d="M479.946,495.792c6.507-16.144,10.31-33.311,11.185-51.004c3.542,0.513,7.24,0.794,11.106,0.794
	c2.375,0,4.678-0.109,6.923-0.3c0.908,17.273,4.613,34.035,10.895,49.832C507.086,493.431,492.482,493.662,479.946,495.792z"/>
<g>
	<path d="M376.136,436.868c-1.793,26.389-23.752,47.242-50.596,47.242s-48.803-20.853-50.596-47.242h-88.557
		c-2.229,0-4.017,1.852-3.943,4.081c2.294,68.884,62.462,124.064,136.35,124.064c73.888,0,134.056-55.18,136.35-124.064
		c0.074-2.228-1.713-4.081-3.943-4.081L376.136,436.868L376.136,436.868z"/>
	<path d="M623.865,436.868c1.793,26.389,23.753,47.242,50.596,47.242c26.844,0,48.803-20.853,50.596-47.242h88.557
		c2.23,0,4.017,1.852,3.943,4.081c-2.294,68.884-62.462,124.064-136.35,124.064c-73.888,0-134.056-55.18-136.351-124.064
		c-0.074-2.228,1.713-4.081,3.943-4.081L623.865,436.868L623.865,436.868z"/>
</g>
<g>
	<polygon points="259.818,171.487 300.899,171.487 276.623,136.942 	"/>
	<polygon points="740.183,171.487 699.102,171.487 723.378,136.942 	"/>
</g>
<path d="M499.962,549.451c-3.028-14.478-22.529-20.998-30.721-23.123c-1.534-0.398-1.736-2.458-0.331-3.191
	c13.046-6.811,49.135-6.811,62.181,0c1.406,0.733,1.204,2.793-0.331,3.191c-8.193,2.125-27.694,8.645-30.721,23.123H499.962z"/>
<path d="M460.32,641.582c0,0,9.386-7.936,40.872-7.936s38.488,9.803,38.488,9.803s-13.694,6.535-39.525,6.535
	C474.325,649.986,460.32,641.582,460.32,641.582z"/>
<g>
	<path d="M578.334,607.343c-3.506-1.427-5.191-5.427-3.762-8.932c1.427-3.507,5.428-5.189,8.932-3.762
		c0.93,0.379,9.36,3.946,19.729,12.442c0.83-1.051,1.646-2.144,2.434-3.321c0,0,3.469-7.606,1.958-18.406
		c-12.622-6.26-22.322-8.304-22.46-8.332c-3.703-0.756-6.102-4.369-5.354-8.074c0.75-3.707,4.35-6.116,8.055-5.365
		c0.426,0.084,5.358,1.103,12.759,3.822c-2.767-4.166-6.489-8.436-11.461-12.663c-28.01-23.808-31.278-25.209-31.278-25.209
		s-0.477,24.275-27.082,24.275c0,0-3.263,18.207-30.805,18.207c-27.542,0-30.805-18.207-30.805-18.207
		c-26.603,0-27.081-24.275-27.081-24.275s-3.268,1.401-31.278,25.209c-4.973,4.227-8.696,8.498-11.463,12.665
		c7.401-2.72,12.334-3.738,12.76-3.823c3.714-0.755,7.323,1.665,8.066,5.377c0.741,3.708-1.66,7.316-5.367,8.062
		c-0.234,0.048-9.899,2.102-22.457,8.331c-1.511,10.8,1.958,18.405,1.958,18.405c0.788,1.177,1.604,2.269,2.433,3.32
		c10.368-8.495,18.798-12.062,19.728-12.441c3.506-1.427,7.506,0.256,8.934,3.762c1.425,3.497-0.249,7.488-3.74,8.924
		c-0.734,0.305-6.877,2.957-14.762,9.153C443.105,639.844,500,588.365,500,588.365s56.763,51.357,92.948,28.202
		C584.773,610.076,578.518,607.419,578.334,607.343z"/>
	<path d="M869.727,832.982c-0.469,0,0-131.873,0-131.873c45.912-13.006,79.561-55.197,79.561-105.276s-33.65-92.269-79.561-105.276
		V285.948c0-41.517-30.767-75.831-70.741-81.43c-14.906-39.552-72.897-130.285-72.897-130.285S632.387,192.706,625.279,203.7H373.44
		c-7.108-10.994-100.81-129.467-100.81-129.467s-58.173,91.015-72.969,130.47c0.01-0.001,0.033-0.002,0.043-0.004
		c-39.337,6.155-69.432,40.185-69.432,81.249v204.61c-45.912,13.006-79.561,55.197-79.561,105.276
		c0,50.079,33.649,92.269,79.561,105.276c0,0,0.469,131.873,0,131.873c-27.329,0-50.884,22.154-50.884,49.483
		c0,27.329,22.155,49.483,49.483,49.483c0.469,0,257.572,0,257.572,0c13.704-49.78,59.268-86.357,113.403-86.357
		s99.699,36.578,113.402,86.357c0,0,257.41,0,257.879,0c27.329,0,49.483-22.154,49.483-49.483
		C920.612,855.137,897.057,832.982,869.727,832.982z M663.809,182.968l49.699-70.724c6.004-8.543,18.974-7.505,23.542,1.885
		l33.949,69.783c2.215,4.552-1.1,9.852-6.163,9.852h-95.418C663.866,193.763,660.618,187.51,663.809,182.968z M229.002,183.911
		l33.95-69.783c4.568-9.391,17.538-10.429,23.542-1.885l8.356,11.892l24.275,34.545l17.067,24.288
		c3.191,4.541-0.057,10.794-5.608,10.794h-95.418C230.103,193.763,226.788,188.463,229.002,183.911z M853.608,436.868
		c0,44.268-18.22,85.762-51.303,116.839c-32.464,30.495-75.471,47.289-121.099,47.289c-11.286,0-22.404-1.056-33.249-3.067
		c16.395,17.013,31.615,43.185,33.179,82.282c0.151,3.783-2.793,6.971-6.575,7.123c-0.094,0.005-0.188,0.007-0.28,0.007
		c-3.659,0-6.697-2.892-6.844-6.58c-1.308-32.704-12.913-59.011-34.518-78.354c-1.239,6.589-3.086,10.799-3.325,11.324
		c-0.538,1.178-1.169,2.309-1.891,3.385c-2.067,3.088-4.297,5.945-6.676,8.569c13.448,17.873,25.21,44.807,24.632,84.155
		c-0.054,3.751-3.113,6.753-6.851,6.753c-0.033,0-0.069,0-0.102,0c-3.785-0.057-6.809-3.169-6.754-6.955
		c0.512-34.784-9.701-58.714-21.346-74.632c-8.382,5.994-18.009,9.739-28.576,11.042c-2.806,0.346-24.704,15.996-31.104,19.051
		c-3.105,1.482-20.103,8.875-49.858,8.875c-30.909,0-48.888-9.846-52.177-11.821c-5.856-3.513-21.542-15.468-26.713-16.106
		c-11.779-1.452-22.389-5.941-31.41-13.195c-12.211,15.824-23.258,40.28-22.721,76.787c0.056,3.785-2.968,6.898-6.753,6.955
		c-0.034,0-0.069,0-0.102,0c-3.739,0-6.796-3.002-6.851-6.754c-0.607-41.278,12.365-68.901,26.619-86.726
		c-1.558-1.892-3.045-3.891-4.456-5.998c-0.721-1.076-1.352-2.207-1.89-3.385c-0.275-0.604-2.682-6.093-3.837-14.478
		c-23.977,19.597-36.832,46.99-38.215,81.51c-0.148,3.686-3.185,6.578-6.844,6.578c-0.093,0-0.186-0.002-0.279-0.005
		c-3.783-0.153-6.726-3.34-6.575-7.123c1.563-39.08,16.77-65.247,33.157-82.26c-10.836,2.008-21.95,3.043-33.228,3.043
		c-45.628,0-88.635-16.794-121.099-47.289c-33.084-31.077-51.303-72.571-51.303-116.839v-28.11c0-4.348,3.526-7.874,7.874-7.874
		h279.029c-0.776-1.542-1.487-3.058-2.119-4.526c-2.475-3.846-3.841-8.476-3.587-13.448c0.624-12.224,10.503-21.57,22.743-21.541
		c10.987,0.026,20.139,7.851,22.219,18.232c1.265,2.744,3.359,6.614,6.452,10.333c6.295,7.571,13.636,11.096,23.099,11.096
		c18.954,0,26.113-14.948,28.219-20.937c1.876-10.556,11.022-18.598,22.087-18.722c12.471-0.14,22.924,10.144,22.98,22.615
		c0.021,4.489-1.281,8.663-3.508,12.195c-0.574,1.518-1.237,3.095-1.971,4.703h275.824c4.348,0,7.874,3.526,7.874,7.874V436.868z"/>
</g>
</svg>
