<svg enable-background="new 0 0 1000 1000" height="1000" viewBox="0 0 1000 1000" width="1000" xmlns="http://www.w3.org/2000/svg"><path d="m726.807 25.212c11.124 0 22.208 5.345 28.9 15.815 0 0 52.324 82.231 74.078 127.208 19.814 7.125 37.675 19.213 51.769 35.282 19.997 22.803 31.011 52.077 31.011 82.43v176.151c18.626 10.164 35.156 24.196 48.14 41.109 20.557 26.777 31.422 58.806 31.422 92.626s-10.866 65.849-31.422 92.626c-13.005 16.941-29.567 30.99-48.229 41.159-.068 24.252-.12 50.837-.119 70.744 8.244 4.206 15.915 9.655 22.767 16.248 19.885 19.137 30.044 45.157 28.089 72.502-3.471 48.532-44.795 85.676-93.452 85.676h-256.513-32.639l-8.662-31.469c-8.897-32.318-38.545-54.889-72.1-54.889s-63.204 22.571-72.1 54.889l-8.662 31.469h-32.639-256.205c-48.656 0-89.98-37.144-93.452-85.676-1.956-27.346 8.204-53.365 28.089-72.502 6.851-6.594 14.523-12.043 22.767-16.248.002-19.908-.051-46.492-.119-70.744-18.662-10.168-35.224-24.218-48.229-41.159-20.557-26.777-31.422-58.807-31.422-92.626s10.865-65.848 31.421-92.627c12.985-16.913 29.514-30.945 48.14-41.109v-176.151c0-30.002 10.788-59.02 30.378-81.71 13.803-15.987 31.347-28.132 50.851-35.443 21.692-45.014 74.348-127.767 74.348-127.767 6.693-10.471 17.774-15.816 28.9-15.815 9.959.001 19.954 4.286 26.855 13.012 0 0 72.926 92.335 96.123 122.637h208.938c23.196-30.302 96.122-122.637 96.122-122.637 6.903-8.727 16.895-13.011 26.856-13.011m0-7.874c-12.949 0-24.989 5.832-33.031 16.001 0 0-70.492 89.263-93.831 119.647h-201.169c-23.428-30.5-93.832-119.647-93.832-119.647-8.041-10.168-20.08-16-33.03-16.001-14.467-.001-27.751 7.269-35.535 19.449 0 0-51.141 80.32-73.445 125.788-19.627 7.903-37.235 20.48-51.08 36.517-20.824 24.12-32.292 54.965-32.292 86.856v171.557c-17.957 10.502-33.969 24.571-46.511 40.908-21.623 28.164-33.051 61.852-33.051 97.42 0 35.57 11.429 69.258 33.051 97.421 12.565 16.368 28.611 30.458 46.614 40.968.064 23.806.101 45.268.106 61.448-7.352 4.205-14.181 9.326-20.353 15.266-10.742 10.337-18.855 22.448-24.114 35.996-5.281 13.603-7.423 27.983-6.368 42.741 1.817 25.408 13.3 48.952 32.332 66.296 18.889 17.213 43.384 26.693 68.974 26.693h256.203 32.639 5.999l1.592-5.784 8.662-31.469c7.959-28.912 34.486-49.105 64.509-49.105s56.55 20.193 64.509 49.105l8.662 31.468 1.592 5.784h5.999 32.639 256.511c25.59 0 50.086-9.48 68.974-26.693 19.032-17.344 30.515-40.888 32.331-66.296 1.056-14.758-1.087-29.138-6.368-42.74-5.26-13.548-13.373-25.659-24.115-35.997-6.171-5.939-13.001-11.06-20.352-15.265.007-21.067.064-45.8.106-61.449 18.002-10.51 34.049-24.6 46.614-40.968 21.622-28.165 33.05-61.852 33.05-97.421 0-35.57-11.429-69.258-33.051-97.421-12.541-16.336-28.553-30.405-46.511-40.908v-171.556c0-32.263-11.707-63.381-32.965-87.622-14.132-16.114-32.053-28.639-51.99-36.367-22.359-45.416-73.142-125.172-73.142-125.172-7.781-12.178-21.065-19.448-35.532-19.448z"/><path d="m479.946 495.792c6.507-16.144 10.31-33.311 11.185-51.004 3.542.513 7.24.794 11.106.794 2.375 0 4.678-.109 6.923-.3.908 17.273 4.613 34.035 10.895 49.832-12.969-1.683-27.573-1.452-40.109.678z"/><path d="m376.136 436.868c-1.793 26.389-23.752 47.242-50.596 47.242s-48.803-20.853-50.596-47.242h-88.557c-2.229 0-4.017 1.852-3.943 4.081 2.294 68.884 62.462 124.064 136.35 124.064s134.056-55.18 136.35-124.064c.074-2.228-1.713-4.081-3.943-4.081z"/><path d="m623.865 436.868c1.793 26.389 23.753 47.242 50.596 47.242 26.844 0 48.803-20.853 50.596-47.242h88.557c2.23 0 4.017 1.852 3.943 4.081-2.294 68.884-62.462 124.064-136.35 124.064s-134.056-55.18-136.351-124.064c-.074-2.228 1.713-4.081 3.943-4.081z"/><path d="m259.818 171.487h41.081l-24.276-34.545z"/><path d="m740.183 171.487h-41.081l24.276-34.545z"/><path d="m499.962 549.451c-3.028-14.478-22.529-20.998-30.721-23.123-1.534-.398-1.736-2.458-.331-3.191 13.046-6.811 49.135-6.811 62.181 0 1.406.733 1.204 2.793-.331 3.191-8.193 2.125-27.694 8.645-30.721 23.123z"/><path d="m460.32 641.582s9.386-7.936 40.872-7.936 38.488 9.803 38.488 9.803-13.694 6.535-39.525 6.535c-25.83.002-39.835-8.402-39.835-8.402z"/><path d="m578.334 607.343c-3.506-1.427-5.191-5.427-3.762-8.932 1.427-3.507 5.428-5.189 8.932-3.762.93.379 9.36 3.946 19.729 12.442.83-1.051 1.646-2.144 2.434-3.321 0 0 3.469-7.606 1.958-18.406-12.622-6.26-22.322-8.304-22.46-8.332-3.703-.756-6.102-4.369-5.354-8.074.75-3.707 4.35-6.116 8.055-5.365.426.084 5.358 1.103 12.759 3.822-2.767-4.166-6.489-8.436-11.461-12.663-28.01-23.808-31.278-25.209-31.278-25.209s-.477 24.275-27.082 24.275c0 0-3.263 18.207-30.805 18.207s-30.805-18.207-30.805-18.207c-26.603 0-27.081-24.275-27.081-24.275s-3.268 1.401-31.278 25.209c-4.973 4.227-8.696 8.498-11.463 12.665 7.401-2.72 12.334-3.738 12.76-3.823 3.714-.755 7.323 1.665 8.066 5.377.741 3.708-1.66 7.316-5.367 8.062-.234.048-9.899 2.102-22.457 8.331-1.511 10.8 1.958 18.405 1.958 18.405.788 1.177 1.604 2.269 2.433 3.32 10.368-8.495 18.798-12.062 19.728-12.441 3.506-1.427 7.506.256 8.934 3.762 1.425 3.497-.249 7.488-3.74 8.924-.734.305-6.877 2.957-14.762 9.153 36.18 23.357 93.075-28.122 93.075-28.122s56.763 51.357 92.948 28.202c-8.175-6.491-14.43-9.148-14.614-9.224z"/><path d="m869.727 832.982c-.469 0 0-131.873 0-131.873 45.912-13.006 79.561-55.197 79.561-105.276s-33.65-92.269-79.561-105.276v-204.609c0-41.517-30.767-75.831-70.741-81.43-14.906-39.552-72.897-130.285-72.897-130.285s-93.702 118.473-100.81 129.467h-251.839c-7.108-10.994-100.81-129.467-100.81-129.467s-58.173 91.015-72.969 130.47c.01-.001.033-.002.043-.004-39.337 6.155-69.432 40.185-69.432 81.249v204.61c-45.912 13.006-79.561 55.197-79.561 105.276s33.649 92.269 79.561 105.276c0 0 .469 131.873 0 131.873-27.329 0-50.884 22.154-50.884 49.483s22.155 49.483 49.483 49.483h257.572c13.704-49.78 59.268-86.357 113.403-86.357s99.699 36.578 113.402 86.357h257.879c27.329 0 49.483-22.154 49.483-49.483.002-27.329-23.553-49.484-50.883-49.484zm-205.918-650.014 49.699-70.724c6.004-8.543 18.974-7.505 23.542 1.885l33.949 69.783c2.215 4.552-1.1 9.852-6.163 9.852h-95.418c-5.552-.001-8.8-6.254-5.609-10.796zm-434.807.943 33.95-69.783c4.568-9.391 17.538-10.429 23.542-1.885l8.356 11.892 24.275 34.545 17.067 24.288c3.191 4.541-.057 10.794-5.608 10.794h-95.418c-5.063.001-8.378-5.299-6.164-9.851zm624.606 252.957c0 44.268-18.22 85.762-51.303 116.839-32.464 30.495-75.471 47.289-121.099 47.289-11.286 0-22.404-1.056-33.249-3.067 16.395 17.013 31.615 43.185 33.179 82.282.151 3.783-2.793 6.971-6.575 7.123-.094.005-.188.007-.28.007-3.659 0-6.697-2.892-6.844-6.58-1.308-32.704-12.913-59.011-34.518-78.354-1.239 6.589-3.086 10.799-3.325 11.324-.538 1.178-1.169 2.309-1.891 3.385-2.067 3.088-4.297 5.945-6.676 8.569 13.448 17.873 25.21 44.807 24.632 84.155-.054 3.751-3.113 6.753-6.851 6.753-.033 0-.069 0-.102 0-3.785-.057-6.809-3.169-6.754-6.955.512-34.784-9.701-58.714-21.346-74.632-8.382 5.994-18.009 9.739-28.576 11.042-2.806.346-24.704 15.996-31.104 19.051-3.105 1.482-20.103 8.875-49.858 8.875-30.909 0-48.888-9.846-52.177-11.821-5.856-3.513-21.542-15.468-26.713-16.106-11.779-1.452-22.389-5.941-31.41-13.195-12.211 15.824-23.258 40.28-22.721 76.787.056 3.785-2.968 6.898-6.753 6.955-.034 0-.069 0-.102 0-3.739 0-6.796-3.002-6.851-6.754-.607-41.278 12.365-68.901 26.619-86.726-1.558-1.892-3.045-3.891-4.456-5.998-.721-1.076-1.352-2.207-1.89-3.385-.275-.604-2.682-6.093-3.837-14.478-23.977 19.597-36.832 46.99-38.215 81.51-.148 3.686-3.185 6.578-6.844 6.578-.093 0-.186-.002-.279-.005-3.783-.153-6.726-3.34-6.575-7.123 1.563-39.08 16.77-65.247 33.157-82.26-10.836 2.008-21.95 3.043-33.228 3.043-45.628 0-88.635-16.794-121.099-47.289-33.084-31.077-51.303-72.571-51.303-116.839v-28.11c0-4.348 3.526-7.874 7.874-7.874h279.029c-.776-1.542-1.487-3.058-2.119-4.526-2.475-3.846-3.841-8.476-3.587-13.448.624-12.224 10.503-21.57 22.743-21.541 10.987.026 20.139 7.851 22.219 18.232 1.265 2.744 3.359 6.614 6.452 10.333 6.295 7.571 13.636 11.096 23.099 11.096 18.954 0 26.113-14.948 28.219-20.937 1.876-10.556 11.022-18.598 22.087-18.722 12.471-.14 22.924 10.144 22.98 22.615.021 4.489-1.281 8.663-3.508 12.195-.574 1.518-1.237 3.095-1.971 4.703h275.824c4.348 0 7.874 3.526 7.874 7.874v28.11z"/></svg>