<svg enable-background="new 0 0 1000 1000" height="1000" viewBox="0 0 1000 1000" width="1000" xmlns="http://www.w3.org/2000/svg"><path d="m695.57 43.195c-21.981 27.792-66.513 84.227-90.08 115.014h-212.281c-23.568-30.787-68.098-87.222-90.08-115.014l-7.581-9.585c-14.844-18.769-43.76-17.315-56.647 2.848l-6.581 10.296c-5.389 8.431-46.918 73.781-68.957 119.515-19.816 7.428-37.641 19.767-51.665 36.01-19.903 23.053-30.864 52.535-30.864 83.017v178.969c-18.924 10.327-35.717 24.583-48.91 41.767-20.885 27.207-31.924 59.749-31.924 94.109s11.039 66.903 31.925 94.108c13.213 17.212 30.04 31.486 49.001 41.817.069 24.64.123 51.649.121 71.876-8.376 4.272-16.17 9.808-23.131 16.508-20.203 19.443-30.525 45.879-28.538 73.662 3.527 49.309 45.513 87.047 94.947 87.047h260.302 33.161l8.801-31.972c9.039-32.835 39.162-55.767 73.254-55.767s64.215 22.932 73.254 55.767l8.801 31.972h33.161 260.615c49.435 0 91.421-37.738 94.947-87.047 1.987-27.783-8.335-54.219-28.538-73.662-6.961-6.699-14.755-12.235-23.131-16.508-.001-20.226.052-47.236.121-71.876 18.961-10.331 35.788-24.605 49.001-41.817 20.885-27.205 31.925-59.747 31.925-94.108s-11.039-66.903-31.925-94.108c-13.192-17.184-29.986-31.44-48.91-41.767v-178.969c0-30.839-11.19-60.581-31.507-83.749-14.319-16.327-32.466-28.608-52.597-35.847-22.102-45.696-63.323-110.562-68.682-118.946l-6.581-10.297c-12.887-20.163-41.803-21.617-56.647-2.848z"/><path d="m875.642 841.084c-.477 0 0-133.983 0-133.983 46.647-13.214 80.834-56.08 80.834-106.96s-34.188-93.745-80.834-106.96v-207.883c0-42.181-31.259-77.044-71.873-82.733-15.144-40.185-74.063-132.369-74.063-132.369s-95.201 120.368-102.423 131.538h-255.868c-7.222-11.17-102.423-131.538-102.423-131.538s-59.104 92.471-74.136 132.557c.01-.001.033-.002.044-.004-39.966 6.254-70.543 40.828-70.543 82.549v207.884c-46.647 13.214-80.834 56.08-80.834 106.96s34.187 93.745 80.834 106.96c0 0 .477 133.983 0 133.983-27.766 0-51.698 22.509-51.698 50.275s22.509 50.275 50.275 50.275h261.693c13.923-50.576 60.216-87.739 115.217-87.739s101.294 37.163 115.216 87.739h262.005c27.766 0 50.275-22.509 50.275-50.275.001-27.767-23.931-50.276-51.698-50.276z" fill="#efefef"/><path d="m571.028 402.073c.746-1.634 1.42-3.236 2.003-4.779 2.263-3.588 3.585-7.829 3.564-12.39-.057-12.671-10.677-23.119-23.348-22.977-11.242.126-20.534 8.297-22.44 19.022-2.14 6.085-9.414 21.272-28.671 21.272-9.615 0-17.073-3.582-23.469-11.274-3.142-3.778-5.27-7.71-6.555-10.498-2.113-10.547-11.411-18.498-22.574-18.524-12.436-.029-22.473 9.466-23.107 21.886-.258 5.051 1.129 9.755 3.644 13.663.642 1.491 1.365 3.031 2.153 4.598h-283.493c-4.418 0-8 3.582-8 8v28.56c0 44.976 18.511 87.134 52.124 118.708 32.983 30.983 76.678 48.046 123.036 48.046 17.982 0 35.559-2.578 52.27-7.53.584 11.715 4.103 19.725 4.442 20.468.546 1.197 1.188 2.346 1.92 3.439 11.304 16.884 27.351 27.047 46.405 29.395 5.253.649 21.19 12.795 27.14 16.364 3.342 2.006 21.609 12.01 53.012 12.01 30.231 0 47.501-7.511 50.656-9.017 6.503-3.104 28.751-19.004 31.602-19.356 19.053-2.348 35.101-12.511 46.405-29.395.733-1.093 1.374-2.242 1.921-3.439.327-.718 3.619-8.215 4.371-19.278 15.446 4.172 31.586 6.339 48.066 6.339 46.358 0 90.053-17.063 123.036-48.046 33.613-31.574 52.124-73.732 52.124-118.708v-28.56c0-4.418-3.582-8-8-8h-280.237z"/><path d="m479.625 498.499c6.611-16.402 10.475-33.844 11.364-51.82 3.599.521 7.356.807 11.284.807 2.413 0 4.753-.111 7.034-.305.922 17.549 4.687 34.58 11.069 50.629-13.177-1.71-28.015-1.475-40.751.689z" fill="#b3b3b3"/><path d="m374.154 438.632c-1.822 26.811-24.132 47.998-51.405 47.998s-49.584-21.187-51.405-47.998h-89.974c-2.265 0-4.081 1.882-4.006 4.146 2.331 69.986 63.462 126.048 138.532 126.048s136.201-56.063 138.532-126.048c.075-2.264-1.74-4.146-4.006-4.146z" fill="#fff"/><path d="m625.846 438.632c1.822 26.811 24.133 47.998 51.405 47.998 27.273 0 49.584-21.187 51.405-47.998h89.974c2.266 0 4.081 1.882 4.006 4.146-2.331 69.986-63.462 126.048-138.532 126.048s-136.201-56.063-138.532-126.048c-.075-2.264 1.74-4.146 4.006-4.146z" fill="#fff"/><path d="m224.666 181.628c-2.25 4.625 1.118 10.01 6.262 10.01h96.945c5.64 0 8.94-6.353 5.698-10.967l-17.34-24.677-24.663-35.098-8.49-12.082c-6.1-8.681-19.278-7.626-23.919 1.915z"/><path d="m672.127 191.638h96.945c5.144 0 8.512-5.385 6.262-10.01l-34.492-70.899c-4.641-9.54-17.819-10.595-23.919-1.915l-50.494 71.856c-3.242 4.615.058 10.968 5.698 10.968z"/><path d="m255.975 169.006h41.738l-24.664-35.098z" fill="#e88cb8"/><path d="m744.025 169.006h-41.738l24.664-35.098z" fill="#e88cb8"/><path d="m499.961 553.017c-3.076-14.71-22.889-21.334-31.213-23.493-1.559-.404-1.764-2.497-.336-3.242 13.255-6.92 49.921-6.92 63.176 0 1.428.745 1.223 2.838-.336 3.242-8.324 2.159-28.137 8.783-31.213 23.493z" fill="#e277af"/><path d="m459.685 646.622s9.536-8.063 41.526-8.063 39.104 9.96 39.104 9.96-13.913 6.64-40.157 6.64c-26.244.001-40.473-8.537-40.473-8.537z" fill="#b3b3b3"/><path d="m590.591 558.403c-28.458-24.189-31.778-25.612-31.778-25.612s-.485 24.663-27.515 24.663c0 0-3.315 18.498-31.298 18.498s-31.298-18.498-31.298-18.498c-27.029 0-27.514-24.663-27.514-24.663s-3.32 1.423-31.778 25.612-16.768 49.801-16.768 49.801c33.982 50.75 107.358-15.651 107.358-15.651s73.376 66.401 107.358 15.652c0 0 11.69-25.612-16.767-49.802z" fill="#b3b3b3"/><path d="m322.93 693.112c-.094 0-.189-.002-.283-.005-3.843-.155-6.834-3.393-6.68-7.237 2.07-51.759 27.694-81.242 48.826-96.861 22.805-16.855 45.001-21.437 45.934-21.622 3.773-.767 7.44 1.692 8.195 5.463.753 3.767-1.687 7.433-5.453 8.191-.343.071-20.576 4.364-40.841 19.499-26.887 20.078-41.267 48.976-42.745 85.889-.15 3.745-3.236 6.683-6.953 6.683z"/><path d="m358.97 722.833c-3.799 0-6.905-3.05-6.961-6.862-1.32-89.731 60.515-115.961 63.148-117.034 3.562-1.45 7.626.26 9.077 3.822 1.448 3.553-.253 7.608-3.8 9.067-2.274.945-55.674 24.067-54.499 103.941.057 3.846-3.015 7.008-6.861 7.066-.035-0-.07-0-.104-0z"/><path d="m677.07 693.112c-3.718 0-6.804-2.938-6.953-6.685-1.476-36.913-15.857-65.81-42.745-85.889-20.337-15.187-40.642-19.458-40.844-19.499-3.762-.768-6.2-4.439-5.44-8.203.762-3.766 4.42-6.214 8.184-5.451.933.185 23.13 4.767 45.936 21.622 21.131 15.619 46.755 45.103 48.826 96.861.153 3.844-2.838 7.083-6.68 7.237-.096.005-.191.007-.284.007z"/><path d="m641.029 722.833c-.034 0-.07 0-.104 0-3.846-.058-6.918-3.22-6.862-7.066 1.182-80.321-53.92-103.704-54.476-103.932-3.562-1.45-5.274-5.514-3.822-9.075 1.45-3.563 5.515-5.272 9.075-3.822 2.633 1.073 64.469 27.302 63.15 117.034-.055 3.811-3.163 6.861-6.961 6.861z"/><path d="m-81.806 0h81.657v81.657h-81.657z" fill="#efefef"/><path d="m-81.806 81.657h81.657v81.657h-81.657z" fill="#b3b3b3"/><path d="m-81.806 163.314h81.657v81.657h-81.657z"/><path d="m-81.806 244.971h81.657v81.657h-81.657z" fill="#e88cb8"/></svg>