<?xml version="1.0" encoding="utf-8"?>
<!-- Generator: Adobe Illustrator 27.4.1, SVG Export Plug-In . SVG Version: 6.00 Build 0)  -->
<svg version="1.1" id="Layer_1" xmlns="http://www.w3.org/2000/svg" xmlns:xlink="http://www.w3.org/1999/xlink" x="0px" y="0px"
	 viewBox="0 0 1280 640" style="enable-background:new 0 0 1280 640;" xml:space="preserve">
<style type="text/css">
	.st0{fill:#010101;}
	.st1{fill:#F0EFEF;}
	.st2{fill:#B4B4B4;}
	.st3{fill:#FFFFFF;}
	.st4{fill:#E98DB8;}
	.st5{fill:#E177AF;}
</style>
<g>
	<path class="st0" d="M470.1,28.1c-14.3,18.1-43.2,54.7-58.5,74.7H273.7c-15.3-20-44.2-56.7-58.5-74.7l-4.9-6.2
		c-9.6-12.2-28.4-11.2-36.8,1.9l-4.3,6.7c-3.5,5.5-30.5,47.9-44.8,77.6c-12.9,4.8-24.5,12.8-33.6,23.4c-12.9,15-20.1,34.1-20.1,53.9
		v116.3c-12.3,6.7-23.2,16-31.8,27.1c-13.6,17.7-20.7,38.8-20.7,61.1c0,22.3,7.2,43.5,20.7,61.1c8.6,11.2,19.5,20.5,31.8,27.2
		c0,16,0.1,33.6,0.1,46.7c-5.4,2.8-10.5,6.4-15,10.7c-13.1,12.6-19.8,29.8-18.5,47.9c2.3,32,29.6,56.5,61.7,56.5h169.1h21.5
		l5.7-20.8c5.9-21.3,25.4-36.2,47.6-36.2s41.7,14.9,47.6,36.2l5.7,20.8h21.5H587c32.1,0,59.4-24.5,61.7-56.5
		c1.3-18-5.4-35.2-18.5-47.9c-4.5-4.4-9.6-7.9-15-10.7c0-13.1,0-30.7,0.1-46.7c12.3-6.7,23.2-16,31.8-27.2
		c13.6-17.7,20.7-38.8,20.7-61.1c0-22.3-7.2-43.5-20.7-61.1c-8.6-11.2-19.5-20.4-31.8-27.1V185.3c0-20-7.3-39.4-20.5-54.4
		c-9.3-10.6-21.1-18.6-34.2-23.3c-14.4-29.7-41.1-71.8-44.6-77.3l-4.3-6.7c-8.4-13.1-27.2-14-36.8-1.9L470.1,28.1z"/>
	<path class="st1" d="M587.1,546.4c-0.3,0,0-87,0-87c30.3-8.6,52.5-36.4,52.5-69.5s-22.2-60.9-52.5-69.5v-135
		c0-27.4-20.3-50.1-46.7-53.7c-9.8-26.1-48.1-86-48.1-86s-61.8,78.2-66.5,85.5H259.6c-4.7-7.3-66.5-85.5-66.5-85.5
		s-38.4,60.1-48.2,86.1l0,0c-26,4.1-45.8,26.5-45.8,53.6v135.1c-30.3,8.6-52.5,36.4-52.5,69.5s22.2,60.9,52.5,69.5c0,0,0.3,87,0,87
		c-18,0-33.6,14.6-33.6,32.7c0,18,14.6,32.7,32.7,32.7c0.3,0,170,0,170,0c9-32.9,39.1-57,74.8-57s65.8,24.1,74.8,57
		c0,0,169.9,0,170.2,0c18,0,32.7-14.6,32.7-32.7C620.7,561,605.2,546.4,587.1,546.4z"/>
	<path class="st0" d="M389.2,261.2c0.5-1.1,0.9-2.1,1.3-3.1c1.5-2.3,2.3-5.1,2.3-8c0-8.2-6.9-15-15.2-14.9
		c-7.3,0.1-13.3,5.4-14.6,12.4c-1.4,4-6.1,13.8-18.6,13.8c-6.2,0-11.1-2.3-15.2-7.3c-2-2.5-3.4-5-4.3-6.8c-1.4-6.9-7.4-12-14.7-12
		c-8.1,0-14.6,6.1-15,14.2c-0.2,3.3,0.7,6.3,2.4,8.9c0.4,1,0.9,2,1.4,3H114.9c-2.9,0-5.2,2.3-5.2,5.2V285c0,29.2,12,56.6,33.9,77.1
		c21.4,20.1,49.8,31.2,79.9,31.2c11.7,0,23.1-1.7,34-4.9c0.4,7.6,2.7,12.8,2.9,13.3c0.4,0.8,0.8,1.5,1.2,2.2
		c7.3,11,17.8,17.6,30.1,19.1c3.4,0.4,13.8,8.3,17.6,10.6c2.2,1.3,14,7.8,34.4,7.8c19.6,0,30.9-4.9,32.9-5.9
		c4.2-2,18.7-12.3,20.5-12.6c12.4-1.5,22.8-8.1,30.1-19.1c0.5-0.7,0.9-1.5,1.2-2.2c0.2-0.5,2.4-5.3,2.8-12.5
		c10,2.7,20.5,4.1,31.2,4.1c30.1,0,58.5-11.1,79.9-31.2c21.8-20.5,33.9-47.9,33.9-77.1v-18.6c0-2.9-2.3-5.2-5.2-5.2L389.2,261.2
		L389.2,261.2z"/>
	<path class="st2" d="M329.9,323.8c4.3-10.7,6.8-22,7.4-33.7c2.3,0.3,4.8,0.5,7.3,0.5c1.6,0,3.1-0.1,4.6-0.2
		c0.6,11.4,3,22.5,7.2,32.9C347.8,322.3,338.1,322.4,329.9,323.8z"/>
	<g>
		<path class="st3" d="M261.3,285c-1.2,17.4-15.7,31.2-33.4,31.2s-32.2-13.8-33.4-31.2H136c-1.5,0-2.7,1.2-2.6,2.7
			c1.5,45.5,41.2,81.9,90,81.9s88.5-36.4,90-81.9c0-1.5-1.1-2.7-2.6-2.7H261.3L261.3,285z"/>
		<path class="st3" d="M424.8,285c1.2,17.4,15.7,31.2,33.4,31.2c17.7,0,32.2-13.8,33.4-31.2h58.5c1.5,0,2.7,1.2,2.6,2.7
			c-1.5,45.5-41.2,81.9-90,81.9s-88.5-36.4-90-81.9c0-1.5,1.1-2.7,2.6-2.7H424.8L424.8,285z"/>
	</g>
	<g>
		<path class="st0" d="M164.2,118c-1.5,3,0.7,6.5,4.1,6.5h63c3.7,0,5.8-4.1,3.7-7.1l-11.3-16l-16-22.8l-5.5-7.8
			c-4-5.6-12.5-5-15.5,1.2L164.2,118z"/>
		<path class="st0" d="M454.9,124.5h63c3.3,0,5.5-3.5,4.1-6.5l-22.4-46.1c-3-6.2-11.6-6.9-15.5-1.2l-32.8,46.7
			C449.1,120.4,451.2,124.5,454.9,124.5z"/>
	</g>
	<g>
		<polygon class="st4" points="184.6,109.8 211.7,109.8 195.7,87 		"/>
		<polygon class="st4" points="501.6,109.8 474.5,109.8 490.5,87 		"/>
	</g>
	<path class="st5" d="M343.1,359.3c-2-9.6-14.9-13.9-20.3-15.3c-1-0.3-1.1-1.6-0.2-2.1c8.6-4.5,32.4-4.5,41,0
		c0.9,0.5,0.8,1.8-0.2,2.1C358,345.4,345.1,349.7,343.1,359.3L343.1,359.3z"/>
	<path class="st2" d="M316.9,420.1c0,0,6.2-5.2,27-5.2s25.4,6.5,25.4,6.5s-9,4.3-26.1,4.3C326.1,425.6,316.9,420.1,316.9,420.1z"/>
	<path class="st2" d="M401.9,362.8c-18.5-15.7-20.6-16.6-20.6-16.6s-0.3,16-17.9,16c0,0-2.2,12-20.3,12s-20.3-12-20.3-12
		c-17.6,0-17.9-16-17.9-16s-2.2,0.9-20.6,16.6c-18.5,15.7-10.9,32.4-10.9,32.4c22.1,33,69.7-10.2,69.7-10.2s47.7,43.1,69.7,10.2
		C412.8,395.1,420.4,378.5,401.9,362.8z"/>
	<g>
		<path class="st0" d="M228.1,450.3c-0.1,0-0.1,0-0.2,0c-2.5-0.1-4.4-2.2-4.3-4.7c1.3-33.6,18-52.8,31.7-62.9
			c14.8-10.9,29.2-13.9,29.8-14c2.5-0.5,4.8,1.1,5.3,3.5s-1.1,4.8-3.5,5.3c-0.2,0-13.4,2.8-26.5,12.7c-17.5,13-26.8,31.8-27.8,55.8
			C232.5,448.4,230.5,450.3,228.1,450.3z"/>
		<path class="st0" d="M251.5,469.6c-2.5,0-4.5-2-4.5-4.5c-0.9-58.3,39.3-75.3,41-76c2.3-0.9,5,0.2,5.9,2.5s-0.2,4.9-2.5,5.9l0,0
			c-1.5,0.6-36.2,15.6-35.4,67.5C256,467.5,254,469.5,251.5,469.6L251.5,469.6z"/>
		<path class="st0" d="M458.1,450.3c-2.4,0-4.4-1.9-4.5-4.3c-1-24-10.3-42.8-27.8-55.8c-13.2-9.9-26.4-12.6-26.5-12.7
			c-2.4-0.5-4-2.9-3.5-5.3s2.9-4,5.3-3.5c0.6,0.1,15,3.1,29.8,14c13.7,10.1,30.4,29.3,31.7,62.9c0.1,2.5-1.8,4.6-4.3,4.7
			C458.2,450.3,458.2,450.3,458.1,450.3z"/>
		<path class="st0" d="M434.7,469.6L434.7,469.6c-2.6,0-4.6-2.1-4.5-4.6c0.8-52.2-35-67.4-35.4-67.5c-2.3-0.9-3.4-3.6-2.5-5.9
			s3.6-3.4,5.9-2.5c1.7,0.7,41.9,17.7,41,76C439.2,467.6,437.2,469.6,434.7,469.6z"/>
	</g>
</g>
<rect x="1133.6" y="494.1" class="st1" width="145.9" height="145.9"/>
<rect x="987.6" y="494.1" class="st2" width="145.9" height="145.9"/>
<rect x="841.7" y="494.1" class="st0" width="145.9" height="145.9"/>
<rect x="695.8" y="494.1" class="st4" width="145.9" height="145.9"/>
<g>
	<path class="st5" d="M1211.4,281.5v71c0,2.1-2.6,3.2-4.1,1.7l-76-76c-0.9-0.9-2.1-1.4-3.4-1.4h-8.3c-2.6,0-4.8,2.1-4.8,4.8v91.3
		c0,2.6,2.1,4.8,4.8,4.8h4.8c2.6,0,4.8-2.1,4.8-4.8V302c0-2.1,2.6-3.2,4.1-1.7l75.8,75.8c0.9,0.9,2.1,1.4,3.4,1.4h8.5
		c2.6,0,4.8-2.1,4.8-4.8v-91.3c0-2.6-2.1-4.8-4.8-4.8h-4.8C1213.5,276.7,1211.4,278.8,1211.4,281.5z"/>
	<path class="st5" d="M1085.5,281.5v72.4c0,5.3-4.3,9.5-9.5,9.5h-67.2c-5.3,0-9.5-4.3-9.5-9.5v-72.4c0-2.6-2.1-4.8-4.8-4.8h-4.8
		c-2.6,0-4.8,2.1-4.8,4.8v77c0,10.5,8.5,19.1,19.1,19.1h76.8c10.5,0,19.1-8.5,19.1-19.1v-77c0-2.6-2.1-4.8-4.8-4.8h-4.8
		C1087.6,276.7,1085.5,278.8,1085.5,281.5z"/>
	<path class="st5" d="M970.5,312.9v-31.4c0-2.6-2.1-4.8-4.8-4.8H961c-2.6,0-4.8,2.1-4.8,4.8V306c0,7.9-6.4,14.3-14.3,14.3h-65.5
		c-1.3,0-2.4-1.1-2.4-2.4v-36.4c0-2.6-2.1-4.8-4.8-4.8h-4.8c-2.6,0-4.8,2.1-4.8,4.8v91.3c0,2.6,2.1,4.8,4.8,4.8h4.8
		c2.6,0,4.8-2.1,4.8-4.8v-36.5c0-1.3,1.1-2.4,2.4-2.4h65.5c7.9,0,14.3,6.4,14.3,14.3V373c0,2.6,2.1,4.8,4.8,4.8h4.8
		c2.6,0,4.8-2.1,4.8-4.8v-31.4c0-7.9-6.4-14.3-14.3-14.3C964.1,327.2,970.5,320.8,970.5,312.9z"/>
	<g>
		<path d="M865.7,442.8c17.4,2,37.7,6.5,50.1,11.4l-2.4,5.5c-11.2-4.7-32.3-9.6-49.6-11.7L865.7,442.8z M872,418.6
			c12.6,1.3,28.4,4.3,38.2,7.3l-1.8,5.5c-9.2-3.2-25.2-6.2-38-7.4L872,418.6z M872.3,394.2c13.4,1.4,30.7,4.6,41.6,8.5l-2.3,5.5
			c-10.9-4.1-27.7-7.2-41.1-8.7L872.3,394.2z"/>
		<path d="M982.3,400.3c-0.2,0.4-0.6,0.7-1,0.9c-4.3,10-9.3,18.7-15.8,27.2c8.6,6.9,21.6,18.7,28.9,26.8l-4.8,4.2
			c-7-8.1-19.7-20.1-27.7-26.6c-7,8.5-19,20-30.4,26.6c-0.9-1.2-2.8-3.2-4.1-4.3c21.9-12,39.2-34.5,46.3-51.6h-38.8v-5.4h41.9l1-0.4
			L982.3,400.3z"/>
		<path d="M1059.8,405.5c-0.1,0.4-0.5,0.7-0.9,0.9c-2.9,9.8-6.9,18.8-11.6,26.2c3.4,2,7.3,4.4,10.2,6.6l-3.3,5.2
			c-2.8-2.2-6.9-4.8-10.2-6.9c-7.3,10.1-16.6,18.3-28.5,24c-0.9-1.3-2.9-3.2-4.3-4.1c11.5-5.4,20.8-13.4,28-22.8
			c-5.8-3.2-11.6-6-17.5-8.2l3-4.4c5.8,2.1,11.7,4.7,17.8,8c4.1-6.5,7.4-13.4,9.6-21h-26.8c-4.8,8.1-11.3,16-18.3,21.7
			c-1-0.9-3.2-2.7-4.5-3.6c10.4-7.9,20.2-22.1,24.9-35.7l7.5,1.7c-0.3,0.9-1.1,1.1-2.1,1c-1.1,2.6-2.9,6.5-4.4,9.4h26.2l1.1-0.3
			L1059.8,405.5z"/>
		<path d="M1074.5,422.4h66v5.6h-63c-0.5,0.8-1.5,1.3-2.5,1.5L1074.5,422.4z"/>
		<path d="M1211.1,426.7h-35c-1.4,2.6-2.9,5.1-4.7,7.5h44.1v29.2h-5.4V460h-36.8v3.5h-5.1v-25.1c-4.3,5-9.4,9.3-15.7,12.8
			c-0.8-1.3-2.4-3.2-3.4-4.2c9.3-5,16-12,20.9-20.2h-11.4V422h13.9c1.5-3,2.8-6.2,3.9-9.5h-26.2v-4.8h27.7c0.8-2.9,1.5-5.9,2.1-8.9
			h-20.5v-4.7h51.6v13.6h11.2v4.8h-11.2V426.7z M1210.2,439h-36.8v16.2h36.8V439z M1205.7,412.5H1182c-1,3.2-2.2,6.4-3.6,9.5h27.4
			v-9.5H1205.7z M1205.7,398.8h-20.2c-0.6,3-1.3,6-2.1,8.9h22.3L1205.7,398.8L1205.7,398.8z"/>
	</g>
</g>
<path d="M659.5,234.9v-55.6c0-2.3,1.9-4.2,4.2-4.2h117c11.2,0,20.2,9,20.2,20.2v56.4c0,2.3-1.9,4.2-4.2,4.2l0,0
	c-11.6,0-21-9.4-21-21v-29.5c0-5.6-4.5-10.1-10.1-10.1h-17.7c-2.8,0-5.1,2.3-5.1,5v51.4c0,2.3-1.9,4.2-4.2,4.2h-16.8
	c-2.3,0-4.2-1.9-4.2-4.2v-51.4c0-2.7-2.3-5-5.1-5h-22.7c-2.8,0-5,2.3-5,5v51.4c0,2.3-1.9,4.2-4.2,4.2h-0.1
	C669,256,659.5,246.6,659.5,234.9z"/>
<path d="M850.7,251.8V240c0-2.3,1.9-4.2,4.2-4.2h64c2.8,0,5.1-2.4,5-5.3c-0.1-2.7-2.5-4.8-5.3-4.8h-47.7c-11.2,0-20.2-9-20.2-20.2
	v-10.1c0-11.2,9-20.2,20.2-20.2h75.6c2.3,0,4.2,1.9,4.2,4.2v11.8c0,2.3-1.9,4.2-4.2,4.2l-65.2,0c-2.7,0-5.2,2.1-5.3,4.8
	c-0.1,2.9,2.2,5.3,5,5.3h50.5c11.1,0,20.2,9,20.2,20.2v10.1c0,11.2-9,20.2-20.2,20.2h-76.6C852.6,256,850.7,254.1,850.7,251.8z"/>
<path d="M1003.5,256c-2.3,0-4.2-1.9-4.2-4.2v-51.4c0-2.7-2.3-5-5.1-5h-28.6c-2.3,0-4.2-1.9-4.2-4.2v-11.8c0-2.3,1.9-4.2,4.2-4.2
	h81.5c8.5,0,15.3,6.9,15.3,15.3v0.7c0,2.3-1.9,4.2-4.2,4.2h-28.6c-2.8,0-5.1,2.3-5.1,5v51.4c0,2.3-1.9,4.2-4.2,4.2H1003.5z"/>
<path d="M838.4,191.2v-4.9c0-6.2-5-11.1-11.1-11.1h-10c-2.3,0-4.2,1.9-4.2,4.2v4.9c0,6.2,5,11.1,11.1,11.1h10
	C836.6,195.4,838.4,193.5,838.4,191.2z"/>
<path d="M813.2,209.7v35.2c0,6.2,5,11.1,11.1,11.1h10c2.3,0,4.2-1.9,4.2-4.2v-35.2c0-6.2-5-11.1-11.1-11.1h-10
	C815,205.5,813.2,207.4,813.2,209.7z"/>
<path d="M1160.2,230.8c0-2.8,2.3-5.1,5-5.1h57.6c1.7,0,3-1.3,3-3v-1.2c0-8.8-7.2-16-16-16h-54.7c-11.2,0-20.2,9-20.2,20.2V240
	c0,8.8,7.2,16,16,16h6.3c1.7,0,3-1.3,3-3V230.8z"/>
<path class="st0" d="M1124.3,232v-11.1c0-8.5-6.9-15.3-15.3-15.3h-60.2c-8.5,0-15.3,6.9-15.3,15.3v15.3v4.5
	c0,8.5,6.9,15.3,15.3,15.3h60.2c6.5,0,12-4,14.2-9.6c1.1-2.7-1-5.7-3.9-5.7l-57.8,0c-1.5,0-2.8-1.2-2.8-2.8v-0.3
	c0-0.8,0.6-1.4,1.4-1.4h60C1122.4,236.1,1124.3,234.3,1124.3,232z M1058.3,218c0-1.5,1.2-2.8,2.8-2.8h36.8c3.8,0,7,3.1,7,7v0.7
	c0,1.5-1.2,2.8-2.8,2.8h-36.8c-3.8,0-7-3.1-7-7V218z"/>
</svg>
